<svg width="5000" height="4920" xmlns="http://www.w3.org/2000/svg" class="img-fluid">
 <defs>
  <linearGradient y2="NaN" x2="NaN" y1="NaN" x1="NaN" id="lg4rnqj7BCNpBfR">
   <stop stop-color="rgb(93,52,143)" offset="0%"/>
   <stop stop-color="rgb(93,47,137)" offset="48%"/>
   <stop stop-color="rgb(77,39,130)" offset="100%"/>
  </linearGradient>
  <linearGradient y2="NaN" x2="NaN" y1="NaN" x1="NaN" id="lg2Y8uDYz268IheZ">
   <stop stop-color="rgb(39,91,156)" offset="0%"/>
   <stop stop-color="rgb(37,78,156)" offset="47%"/>
   <stop stop-color="rgb(52,104,182)" offset="49%"/>
   <stop stop-color="rgb(47,101,183)" offset="96%"/>
   <stop stop-color="rgb(49,109,180)" offset="100%"/>
  </linearGradient>
  <linearGradient y2="NaN" x2="NaN" y1="NaN" x1="NaN" id="lg4x9hOLJuDrr4PC">
   <stop stop-color="rgb(45,167,183)" offset="0%"/>
   <stop stop-color="rgb(40,160,176)" offset="49%"/>
   <stop stop-color="rgb(35,143,161)" offset="53%"/>
   <stop stop-color="rgb(40,149,155)" offset="100%"/>
  </linearGradient>
  <linearGradient y2="NaN" x2="NaN" y1="NaN" x1="NaN" id="lgmnCs45TQ6oG3N">
   <stop stop-color="rgb(55,83,166)" offset="0%"/>
   <stop stop-color="rgb(54,78,160)" offset="49%"/>
   <stop stop-color="rgb(45,62,147)" offset="51%"/>
   <stop stop-color="rgb(40,70,152)" offset="100%"/>
  </linearGradient>
  <linearGradient y2="NaN" x2="NaN" y1="NaN" x1="NaN" id="lg4Wrc10Wa2t2qEj">
   <stop stop-color="rgb(93,184,68)" offset="0%"/>
   <stop stop-color="rgb(94,179,75)" offset="53%"/>
   <stop stop-color="rgb(89,174,74)" offset="54%"/>
   <stop stop-color="rgb(79,162,74)" offset="55%"/>
   <stop stop-color="rgb(72,164,69)" offset="100%"/>
  </linearGradient>
  <radialGradient r="7.919255%" cy="22.764227%" cx="11.645963%" gradientUnits="userSpaceOnUse" id="rg1r3eDH3d01ApKU">
   <stop stop-color="rgb(97,181,75)" offset="6%"/>
   <stop stop-color="rgb(64,164,107)" offset="99%"/>
   <stop stop-color="rgb(62,161,109)" offset="100%"/>
  </radialGradient>
  <linearGradient y2="NaN" x2="NaN" y1="NaN" x1="NaN" id="lg4uz50nGVWY1Wl9">
   <stop stop-color="rgb(138,207,55)" offset="0%"/>
   <stop stop-color="rgb(139,201,67)" offset="49%"/>
   <stop stop-color="rgb(135,198,67)" offset="51%"/>
   <stop stop-color="rgb(118,188,65)" offset="52%"/>
   <stop stop-color="rgb(101,187,57)" offset="100%"/>
  </linearGradient>
  <linearGradient y2="NaN" x2="NaN" y1="NaN" x1="NaN" id="lg5g5s5F767E7lFe">
   <stop stop-color="rgb(238,119,44)" offset="0%"/>
   <stop stop-color="rgb(244,130,45)" offset="49%"/>
   <stop stop-color="rgb(245,134,46)" offset="50%"/>
   <stop stop-color="rgb(246,166,54)" offset="51%"/>
   <stop stop-color="rgb(245,168,52)" offset="56%"/>
   <stop stop-color="rgb(251,164,60)" offset="100%"/>
  </linearGradient>
  <linearGradient y2="NaN" x2="NaN" y1="NaN" x1="NaN" id="lg2yoZN49WxlkPaf">
   <stop stop-color="rgb(237,87,46)" offset="0%"/>
   <stop stop-color="rgb(235,96,39)" offset="49%"/>
   <stop stop-color="rgb(236,100,40)" offset="50%"/>
   <stop stop-color="rgb(242,123,46)" offset="51%"/>
   <stop stop-color="rgb(244,134,48)" offset="52%"/>
   <stop stop-color="rgb(239,133,46)" offset="100%"/>
  </linearGradient>
  <linearGradient y2="NaN" x2="NaN" y1="NaN" x1="NaN" id="lg2vH1Pfag4S1E27">
   <stop stop-color="rgb(204,42,44)" offset="0%"/>
   <stop stop-color="rgb(206,44,41)" offset="47%"/>
   <stop stop-color="rgb(212,58,42)" offset="49%"/>
   <stop stop-color="rgb(221,61,54)" offset="100%"/>
  </linearGradient>
  <linearGradient y2="NaN" x2="NaN" y1="NaN" x1="NaN" id="lg1cwohVIDMdGSMt">
   <stop stop-color="rgb(224,68,48)" offset="0%"/>
   <stop stop-color="rgb(227,75,37)" offset="49%"/>
   <stop stop-color="rgb(229,81,40)" offset="50%"/>
   <stop stop-color="rgb(234,93,44)" offset="51%"/>
   <stop stop-color="rgb(236,99,46)" offset="52%"/>
   <stop stop-color="rgb(234,98,45)" offset="100%"/>
  </linearGradient>
 </defs>
 <g>
  <title>Layer 1</title>
  <g fill="rgb(246,167,52)" id="l7T1cRxVbuc3BYyXGQGOTN">
   <g id="svg_1">
    <path fill="url(#lg5g5s5F767E7lFe)" d="m3446,1666c-9,-59 -10,-822 -1,-868c4,-21 11,-38 17,-38c17,0 298,154 338,185c8,7 60,36 115,65c187,100 360,205 363,222c2,11 -16,27 -60,50c-107,58 -285,160 -463,265c-213,125 -281,163 -293,163c-5,0 -13,-20 -16,-44z" id="poyH7yY71"/>
   </g>
  </g>
  <g fill="rgb(243,137,48)" id="l17hgHq1Ti7Dw0y2aOHFV4R">
   <g id="svg_2">
    <path fill="url(#lg2yoZN49WxlkPaf)" d="m4295,2280c-37,-8 -326,-153 -519,-262c-73,-40 -80,-48 -92,-89c-15,-47 -17,-122 -6,-152c11,-27 657,-401 678,-393c12,4 14,82 14,456c0,505 8,457 -75,440z" id="pBZCeU8LM"/>
    <path fill="url(#lg5g5s5F767E7lFe)" d="m3430,958c0,-18 -10,-61 -22,-96c-23,-63 -23,-63 -3,-78c27,-20 64,-29 76,-17c5,5 5,22 -1,43c-6,19 -10,68 -10,107c0,66 -2,73 -20,73c-16,0 -20,-7 -20,-32z" id="pVv3NJH9V"/>
   </g>
  </g>
  <g fill="rgb(244,124,46)" id="l4VAPFTZH5zxGhod8hJcu3e">
   <g id="svg_3">
    <path fill="url(#lg2yoZN49WxlkPaf)" d="m4296,2318c-9,-12 -16,-35 -16,-50c0,-27 2,-28 38,-22c20,3 40,8 45,11c14,8 7,50 -11,66c-25,23 -38,21 -56,-5z" id="pNQFXoIR7"/>
    <path fill="url(#lg2yoZN49WxlkPaf)" d="m3613,1929c-40,-22 -73,-44 -73,-48c0,-18 35,-52 95,-91c50,-32 68,-40 78,-31c8,6 17,8 20,4c4,-3 7,-1 7,5c0,7 -4,12 -9,12c-16,0 -33,58 -26,89c4,17 10,31 15,31c4,0 6,9 3,20c-3,12 1,22 11,26c27,10 18,24 -16,24c-20,0 -63,-17 -105,-41z" id="pDALp5OXl"/>
    <path fill="url(#lg5g5s5F767E7lFe)" d="m3410,1678c-25,-16 -175,-104 -335,-195c-159,-91 -323,-187 -362,-213c-67,-43 -71,-48 -55,-62c9,-8 89,-55 177,-103c334,-184 524,-291 570,-321c16,-10 26,-14 22,-7c-4,6 3,35 15,65c21,50 22,70 25,413c3,198 8,376 12,395c15,68 0,74 -69,28z" id="pgqq0P9Lv"/>
   </g>
  </g>
  <g fill="rgb(144,205,65)" id="l2lF3vwqjQZqxz832rV7enr">
   <g id="svg_4">
    <path fill="url(#lg4uz50nGVWY1Wl9)" d="m3190,716c0,-8 -10,-18 -22,-22c-23,-7 -286,-7 -298,1c-3,2 -241,5 -528,6c-458,2 -524,0 -545,-14c-13,-9 -40,-19 -61,-22c-20,-4 -36,-12 -36,-19c1,-10 431,-271 574,-349c28,-15 83,-47 121,-72c77,-48 108,-54 139,-27c12,10 91,59 176,109c85,50 171,100 190,111c19,12 60,34 90,51c61,32 264,152 295,174c17,13 18,16 5,31c-12,16 -81,56 -95,56c-3,0 -5,-6 -5,-14z" id="p17gggFvrQ"/>
   </g>
  </g>
  <g fill="rgb(41,165,180)" id="l1uQCglq7Sh0OlrgMIepegQ">
   <g id="svg_5">
    <path fill="url(#lg4x9hOLJuDrr4PC)" d="m1295,2696c-11,-7 -76,-42 -145,-78c-264,-137 -525,-288 -542,-313c-10,-13 -10,-913 0,-918c4,-3 39,14 79,37c67,38 72,43 73,75c0,20 10,47 23,65c13,17 26,38 30,46c4,8 25,44 48,80c23,36 64,108 91,160c28,52 61,113 73,135c12,22 42,78 65,125c24,47 56,103 70,125c28,41 70,127 70,143c0,5 21,42 47,83c44,67 48,80 51,145c5,86 -4,110 -33,90z" id="paBaXlEM1"/>
   </g>
  </g>
  <g fill="rgb(235,98,44)" id="l6Wk0wdoiTWWEOhjqJAbTP5">
   <g id="svg_6">
    <path fill="url(#lg1cwohVIDMdGSMt)" d="m4264,3437l-9,-42l-175,-90c-190,-98 -446,-238 -470,-258c-21,-17 -50,-64 -50,-80c0,-19 76,-68 330,-212c113,-65 262,-151 332,-192c70,-41 132,-72 138,-68c7,4 10,162 10,470l0,465l-48,24l-48,25l-10,-42z" id="pszyg3jqs"/>
    <path fill="url(#lg2yoZN49WxlkPaf)" d="m3550,2343c0,-235 -3,-437 -5,-448c-11,-44 9,-48 71,-12c123,70 394,217 537,290c119,61 153,83 173,113c14,20 22,40 17,45c-8,7 -50,30 -248,133c-153,80 -450,252 -485,281c-8,7 -25,16 -37,19l-23,7l0,-428z" id="pWuX3UeQP"/>
    <path fill="url(#lg2vH1Pfag4S1E27)" d="m3360,2303c0,-10 -3,-42 -6,-70c-7,-52 -6,-53 20,-53c26,0 26,1 26,70c0,63 -2,70 -20,70c-12,0 -20,-7 -20,-17z" id="pxRKKqNfb"/>
   </g>
  </g>
  <g fill="rgb(113,187,65)" id="l7Ww1wvibtaKhJtC4PJX88">
   <g id="svg_7">
    <path fill="url(#lg4Wrc10Wa2t2qEj)" d="m2942,1778c-19,-10 -23,-18 -21,-49c3,-30 -2,-43 -20,-59c-13,-11 -28,-20 -33,-20c-4,0 -8,-11 -8,-25c0,-14 -6,-25 -12,-25c-18,0 -58,-62 -58,-88c0,-12 3,-22 8,-22c4,1 88,47 187,104c166,95 180,105 183,133c5,51 -17,63 -116,62c-48,0 -97,-5 -110,-11z" id="pbigYffdy"/>
    <path fill="url(#lg4uz50nGVWY1Wl9)" d="m2440,1121c-23,-17 -127,-76 -612,-345c-86,-48 -162,-93 -168,-101c-9,-11 -4,-18 27,-33c32,-16 44,-17 78,-8c22,6 50,17 63,24c28,16 837,17 1118,2c97,-5 187,-8 200,-5c13,3 35,7 49,10c14,3 25,12 25,19c0,8 6,16 13,19c6,2 -23,24 -66,48c-83,46 -153,87 -302,174c-273,159 -372,215 -385,215c-8,0 -26,-9 -40,-19z" id="pD1fqUPyK"/>
    <path d="m3266,682c-3,-6 1,-15 8,-21c8,-7 17,-8 20,-3c3,6 -1,15 -8,21c-8,7 -17,8 -20,3z" id="pDjRAfYL9"/>
   </g>
  </g>
  <g fill="rgb(89,182,80)" id="l7W7MRdRzlu2ekIOEcmaQ28">
   <g id="svg_8">
    <path fill="url(#lg4Wrc10Wa2t2qEj)" d="m3100,1910c0,-5 -5,-10 -11,-10c-6,0 -19,-10 -28,-21l-18,-22l-489,2c-498,1 -736,-7 -757,-28c-6,-6 -29,-11 -52,-11c-46,0 -70,-12 -63,-32c3,-7 99,-69 214,-138c115,-68 274,-163 354,-211c158,-94 223,-129 240,-129c6,0 26,11 43,24c18,13 88,54 156,92c87,49 131,80 150,106c14,20 34,39 43,41c11,3 15,11 11,26c-3,12 -1,21 4,21c17,0 63,45 63,62c0,8 10,23 23,31l22,16l-30,1l-30,1l25,14c14,8 51,14 82,15c65,0 91,-17 84,-56l-5,-25l57,32c31,18 64,38 73,46c8,7 21,13 27,13c18,0 14,25 -5,42c-18,15 -172,108 -179,108c-2,0 -4,-4 -4,-10z" id="pcn0tWrhS"/>
    <path fill="url(#rg1r3eDH3d01ApKU)" d="m1434,1684c-81,-41 -93,-64 -94,-164c0,-94 -11,-153 -33,-178c-39,-46 -63,-233 -36,-283c5,-11 7,-29 4,-39c-5,-16 -15,-20 -56,-20c-27,0 -49,-4 -49,-10c0,-5 -9,-10 -21,-10c-12,0 -19,-5 -17,-12c5,-16 337,-208 358,-208c9,0 65,30 125,66c103,62 263,152 381,215c28,15 69,38 91,52c22,14 76,44 120,66c100,51 113,64 81,84c-13,8 -178,107 -368,220c-190,114 -358,216 -375,227c-39,26 -52,25 -111,-6z" id="pxPANMEST"/>
   </g>
  </g>
  <g fill="rgb(79,173,91)" id="lAeFSwHmMCN6ieqsrwNc6Y">
   <g id="svg_9">
    <path fill="url(#rg1r3eDH3d01ApKU)" d="m1240,1575c-184,-104 -269,-156 -297,-182c-19,-17 -16,-66 5,-89c18,-19 20,-56 7,-120c-5,-22 -43,-44 -75,-44c-49,0 -10,-35 127,-112c134,-75 177,-91 193,-69c3,3 25,8 50,9c65,5 65,5 44,165c-7,54 16,145 47,185c10,13 21,49 24,80c4,31 11,72 17,90c6,20 6,38 1,45c-5,7 -9,19 -8,27c1,21 27,70 36,70c7,0 6,26 -2,33c-2,3 -78,-37 -169,-88z" id="pwsAcacCn"/>
   </g>
  </g>
  <g fill="rgb(54,104,183)" id="l5vv54PkYLR8vDWDwB0LJXO">
   <g id="svg_10">
    <path fill="url(#lg2Y8uDYz268IheZ)" d="m1365,3876c-219,-128 -391,-228 -555,-323c-107,-62 -198,-121 -202,-130c-10,-26 -9,-146 1,-162c14,-22 41,-5 41,26c0,55 13,58 76,20c33,-20 91,-53 129,-75c128,-71 319,-184 360,-212c23,-16 59,-33 82,-39c22,-6 46,-18 53,-26c7,-8 25,-15 40,-15l27,0l6,173c12,311 9,787 -5,787c-7,-1 -31,-11 -53,-24z" id="p1EkjoDYQe"/>
    <path fill="url(#lg2Y8uDYz268IheZ)" d="m606,2573c4,-16 12,-31 18,-35c18,-12 51,-9 71,6c19,14 19,15 1,35c-13,14 -31,21 -58,21c-37,0 -38,-1 -32,-27z" id="p7Gef4yct"/>
   </g>
  </g>
  <g fill="rgb(35,144,160)" id="l5iG4VEyND1cht6F4n7g9KO">
   <g id="svg_11">
    <path fill="url(#lg4x9hOLJuDrr4PC)" d="m1347,2729c-61,-37 -66,-42 -56,-61c20,-38 4,-102 -45,-179c-25,-40 -46,-76 -46,-81c0,-16 -42,-102 -70,-143c-14,-22 -46,-78 -70,-125c-23,-47 -53,-103 -65,-125c-12,-22 -45,-83 -73,-135c-27,-52 -68,-124 -91,-160c-23,-36 -44,-72 -48,-80c-4,-8 -17,-29 -30,-46c-16,-22 -23,-44 -23,-78c0,-37 -5,-52 -22,-67l-23,-20l25,12c14,7 68,38 120,69c52,31 167,96 255,145c224,122 296,165 322,191l23,23l-2,446c-1,245 -4,448 -7,450c-3,1 -36,-15 -74,-36z" id="pq2AKZMw9"/>
   </g>
  </g>
  <g fill="rgb(227,73,36)" id="l6UBMwVvv6njsA6XnSBWWoj">
   <g id="svg_12">
    <path fill="url(#lg1cwohVIDMdGSMt)" d="m3584,3862c-7,-10 -15,-59 -19,-108c-6,-76 -4,-93 9,-107c17,-17 21,-43 8,-51c-23,-14 -31,-118 -24,-306c6,-152 5,-199 -5,-215c-19,-29 -16,-99 4,-117c27,-23 47,-33 39,-20c-7,12 19,59 44,79c25,20 345,195 497,272c137,69 154,81 160,109c2,6 4,18 6,25c1,6 7,18 11,26c6,10 5,12 -2,7c-7,-4 -12,-3 -12,1c0,8 -259,169 -320,199c-8,4 -40,24 -70,43c-30,19 -80,48 -110,64c-30,17 -87,49 -127,73c-39,24 -73,44 -75,44c-2,0 -8,-8 -14,-18z" id="pQgbGCgwR"/>
    <path fill="url(#lg2yoZN49WxlkPaf)" d="m3600,2734c0,-8 12,-19 27,-25c43,-16 49,-5 10,19c-30,17 -37,18 -37,6z" id="pYWb1fb7e"/>
    <path fill="url(#lg2yoZN49WxlkPaf)" d="m3552,2419l2,-314l6,250c3,138 7,246 9,240c2,-5 7,6 11,25c10,42 3,85 -16,101c-12,10 -14,-37 -12,-302z" id="pYfxgXYxw"/>
   </g>
  </g>
  <g fill="rgb(71,167,98)" id="l6o9wZTzvSRFwR1q77bxlHQ">
   <g id="svg_13">
    <path fill="url(#rg1r3eDH3d01ApKU)" d="m985,1433c-196,-112 -315,-185 -315,-192c0,-13 31,-36 121,-89c90,-52 105,-55 171,-27c23,9 52,73 40,88c-5,7 -7,35 -3,64c4,29 3,50 -2,46c-4,-3 -14,3 -21,13c-16,21 -8,31 44,57c19,9 28,17 20,17c-9,1 -5,5 8,10c12,5 25,18 29,27c4,10 11,21 17,25c6,5 3,8 -9,7c-11,0 -56,-21 -100,-46z" id="pP8lGjmxo"/>
   </g>
  </g>
  <g fill="rgb(216,66,42)" id="lDcKrWlCR9d2THmoDaY2OP">
   <g id="svg_14">
    <path fill="url(#lg1cwohVIDMdGSMt)" d="m3540,3461c0,-420 1,-439 18,-434c10,2 26,18 36,34c14,24 15,36 7,62c-5,17 -9,70 -7,117c2,47 0,117 -5,155c-7,68 3,148 22,170c12,12 11,118 0,110c-15,-8 -23,32 -12,53c6,11 8,35 5,54c-4,24 -1,38 10,47c9,7 16,17 16,22c0,11 -60,49 -77,49c-10,0 -13,-94 -13,-439z" id="pWr5XbeMX"/>
    <path fill="url(#lg2vH1Pfag4S1E27)" d="m2721,3161c-37,-52 -29,-99 43,-235c120,-229 148,-281 166,-306c10,-14 44,-77 77,-140c50,-98 133,-223 264,-394c24,-32 28,-46 23,-72c-6,-31 -4,-34 45,-58c28,-14 53,-26 55,-26c3,0 5,63 5,140c0,77 -3,140 -8,140c-4,0 -4,25 1,55c4,30 7,178 6,327l-3,272l-147,86c-81,47 -155,92 -165,100c-10,9 -40,27 -68,40c-27,13 -76,41 -107,62c-49,33 -65,38 -112,38c-49,0 -57,-3 -75,-29z" id="p9arBzLFl"/>
   </g>
  </g>
  <g fill="rgb(78,162,73)" id="lMZ9np6S4U53umDXPGggdL">
   <g id="svg_15">
    <path fill="url(#lg4Wrc10Wa2t2qEj)" d="m2369,2212c-224,-133 -363,-214 -454,-262c-44,-23 -120,-65 -168,-92c-84,-48 -87,-51 -72,-68c17,-19 55,-23 55,-7c0,5 12,6 27,3c17,-4 40,0 58,10c50,27 276,36 783,31l473,-4l18,24c11,12 24,23 31,23c23,0 4,43 -27,60c-17,9 -44,25 -60,35c-15,11 -62,38 -103,60c-41,23 -129,73 -195,110c-194,111 -239,135 -255,134c-8,0 -58,-26 -111,-57z" id="pCNge3pvn"/>
   </g>
  </g>
  <g fill="rgb(185,28,93)" id="l5T00RgEEyNClQAWK9AqOXa">
   <g id="svg_16">
    <path d="m2563,4018l6,-463l30,-25c16,-14 87,-59 158,-102c518,-309 617,-368 623,-368c16,0 19,79 21,497l2,432l-24,20c-13,11 -28,20 -32,21c-4,0 -34,17 -65,38c-32,21 -65,41 -74,44c-9,4 -105,60 -214,126c-217,129 -416,242 -429,242c-4,0 -6,-208 -2,-462z" id="p11h9FOITv"/>
    <path d="m2560,3319l0,-39l50,0c28,0 50,4 50,8c0,14 -54,59 -77,65c-21,5 -23,2 -23,-34z" id="pRNRkfGjO"/>
   </g>
  </g>
  <g fill="rgb(57,83,166)" id="l1OmMYHNfyzXcroyXZCxaRA">
   <g id="svg_17">
    <path d="m1570,3500c0,-93 1,-100 20,-100c19,0 20,7 20,100c0,93 -1,100 -20,100c-19,0 -20,-7 -20,-100z" id="pvUYn3pGK"/>
    <path fill="url(#lgmnCs45TQ6oG3N)" d="m2220,3239c-74,-43 -74,-42 -315,-187c-250,-151 -298,-181 -313,-195c-9,-10 -14,-117 -19,-450l-6,-437l21,0c38,0 68,21 78,53c5,18 19,36 32,42c12,5 22,13 22,16c0,4 31,54 69,111c38,57 88,142 111,189c24,46 58,108 76,136c18,29 49,83 67,120c19,38 52,98 75,135c79,127 172,327 172,368c0,22 5,42 10,45c14,9 12,64 -2,79c-10,9 -27,4 -78,-25z" id="pgYn0dttx"/>
   </g>
  </g>
  <g fill="rgb(205,41,42)" id="l6ggrBKXbxdnbxEvIMOcTVF">
   <g id="svg_18">
    <path fill="url(#lg2vH1Pfag4S1E27)" d="m2598,3312l-38,-3l0,-438c0,-334 3,-441 12,-454c7,-9 166,-107 353,-218c187,-110 354,-210 372,-220c30,-19 32,-19 32,-2c0,10 2,34 5,53c5,29 0,42 -29,80c-124,161 -217,300 -268,400c-33,63 -67,126 -77,140c-34,48 -230,423 -230,439c0,7 10,26 21,43c17,24 27,29 48,25c34,-7 82,3 75,14c-3,5 -29,21 -57,35c-29,15 -81,45 -117,68c-52,33 -73,40 -102,38z" id="pbLH0hZf0"/>
   </g>
  </g>
  <g fill="rgb(97,49,141)" id="l4AIWzSMiWPxM1MPzKl7xLx">
   <g id="svg_19">
    <path fill="url(#lg4rnqj7BCNpBfR)" d="m2340,4447c-251,-144 -436,-252 -592,-344l-177,-106l1,-423l1,-424l26,0c18,0 32,10 48,34c14,21 32,35 52,39c17,4 31,11 31,16c0,12 148,266 223,381c30,47 63,101 72,120c10,19 62,107 115,195c54,88 104,173 111,190c8,16 26,35 40,42c23,11 28,22 39,93c7,44 16,80 21,80c5,0 9,-25 9,-55c0,-30 5,-55 10,-55c6,0 10,-37 10,-90c0,-81 2,-90 19,-90c11,0 21,9 25,23c8,32 7,417 -1,417c-5,0 -42,-20 -83,-43z" id="pVGA8L1jm"/>
   </g>
  </g>
  <g fill="rgb(40,79,156)" id="l1v7GxKAbcUDl05lPQ4pRuY">
   <g id="svg_20">
    <path fill="url(#lg2Y8uDYz268IheZ)" d="m632,3365c-7,-14 -12,-37 -12,-50c0,-13 -4,-26 -9,-30c-10,-6 -14,-685 -5,-710c3,-8 12,-11 20,-8c17,6 46,-15 38,-28c-9,-16 47,11 130,60c135,80 303,174 469,261c139,73 187,110 143,110c-7,0 -19,7 -26,15c-7,8 -31,20 -53,26c-23,6 -59,23 -82,39c-40,28 -227,138 -360,212c-38,22 -104,59 -145,84c-41,24 -80,44 -86,44c-6,0 -16,-11 -22,-25z" id="ph7MfNJ9b"/>
    <path fill="url(#lgmnCs45TQ6oG3N)" d="m2376,2768c-3,-18 -8,-51 -11,-73c-4,-22 -11,-85 -16,-140c-5,-55 -12,-122 -15,-148l-6,-49l38,25c35,22 40,29 46,78c3,30 6,118 7,197c1,135 0,142 -19,142c-14,0 -20,-9 -24,-32z" id="poH8QZqS6"/>
    <path fill="url(#lgmnCs45TQ6oG3N)" d="m1696,2118c-5,-10 -14,-18 -21,-18c-17,0 -58,-57 -50,-69c5,-9 -32,-27 -47,-23c-5,1 -8,-11 -8,-28c0,-26 4,-30 28,-30c15,0 51,14 80,30c39,23 52,36 52,53c0,13 -4,27 -9,32c-5,6 -11,24 -13,40c-3,24 -6,27 -12,13z" id="p17rKslWrG"/>
   </g>
  </g>
  <g fill="rgb(42,61,147)" id="l2Sjfk7PKfeWTXwYGQNcToN">
   <g id="svg_21">
    <path fill="url(#lgmnCs45TQ6oG3N)" d="m2390,3337c-58,-24 -130,-78 -130,-98c0,-13 4,-18 13,-13c10,6 10,4 0,-7c-7,-7 -13,-30 -13,-50c0,-40 -95,-243 -172,-367c-23,-37 -56,-97 -75,-135c-18,-37 -49,-91 -67,-120c-18,-28 -52,-90 -76,-137c-23,-47 -68,-124 -100,-171c-32,-47 -65,-99 -74,-117c-18,-36 -21,-78 -5,-88c6,-3 9,-15 6,-25c-6,-23 -12,-26 168,81c72,42 213,125 315,184c114,66 186,114 188,124c1,10 6,64 11,122c6,58 15,134 22,170c12,66 22,429 17,576l-3,81l-25,-10z" id="ppQzoabls"/>
    <path fill="url(#lg4rnqj7BCNpBfR)" d="m1572,3204c-2,-152 4,-167 58,-139c43,22 47,41 16,70c-16,15 -26,35 -26,52c-1,25 -2,26 -14,11c-7,-10 -16,-18 -19,-18c-3,0 -8,35 -10,78c-2,52 -4,35 -5,-54z" id="paEbIFj59"/>
   </g>
  </g>
  <g fill="rgb(78,37,127)" id="l4nc236Sck0UsSSde9hFKKZ">
   <g id="svg_22">
    <path fill="url(#lg4rnqj7BCNpBfR)" d="m2326,4387c-8,-12 -20,-57 -27,-100c-10,-68 -15,-79 -38,-90c-14,-7 -32,-26 -40,-42c-7,-17 -57,-102 -111,-190c-53,-88 -105,-176 -115,-195c-9,-19 -42,-73 -72,-120c-75,-115 -223,-369 -223,-381c0,-5 -14,-12 -31,-16c-34,-6 -79,-63 -79,-100c0,-12 13,-35 29,-52l28,-29l29,23c30,23 180,114 537,325l207,123l0,192c0,105 2,293 4,416c2,173 2,190 -3,74c-6,-128 -7,-136 -9,-57c-1,53 -6,92 -12,92c-5,0 -10,23 -10,51c0,79 -35,121 -64,76z" id="p19J2MHLqF"/>
   </g>
  </g>
 </g>
</svg>